<?xml version="1.0" encoding="us-ascii" standalone="no"?><svg xmlns="http://www.w3.org/2000/svg" xmlns:xlink="http://www.w3.org/1999/xlink" contentStyleType="text/css" height="699px" preserveAspectRatio="none" style="width:2124px;height:699px;background:#FFFFFF;" version="1.1" viewBox="0 0 2124 699" width="2124px" zoomAndPan="magnify"><defs/><g><!--cluster Players--><g id="cluster_Players"><path d="M8.5,6 L61.5,6 A3.75,3.75 0 0 1 64,8.5 L71,28.4883 L1166.5,28.4883 A2.5,2.5 0 0 1 1169,30.9883 L1169,689.73 A2.5,2.5 0 0 1 1166.5,692.23 L8.5,692.23 A2.5,2.5 0 0 1 6,689.73 L6,8.5 A2.5,2.5 0 0 1 8.5,6 " fill="none" style="stroke:#000000;stroke-width:1.5;"/><line style="stroke:#000000;stroke-width:1.5;" x1="6" x2="71" y1="28.4883" y2="28.4883"/><text fill="#000000" font-family="sans-serif" font-size="14" font-weight="bold" lengthAdjust="spacing" textLength="52" x="10" y="21.5352">Players</text></g><!--cluster Enemy--><g id="cluster_Enemy"><path d="M1195.5,47.22 L1243.5,47.22 A3.75,3.75 0 0 1 1246,49.72 L1253,69.7083 L1665.5,69.7083 A2.5,2.5 0 0 1 1668,72.2083 L1668,677.49 A2.5,2.5 0 0 1 1665.5,679.99 L1195.5,679.99 A2.5,2.5 0 0 1 1193,677.49 L1193,49.72 A2.5,2.5 0 0 1 1195.5,47.22 " fill="none" style="stroke:#000000;stroke-width:1.5;"/><line style="stroke:#000000;stroke-width:1.5;" x1="1193" x2="1253" y1="69.7083" y2="69.7083"/><text fill="#000000" font-family="sans-serif" font-size="14" font-weight="bold" lengthAdjust="spacing" textLength="47" x="1197" y="62.7552">Enemy</text></g><!--cluster GameManagers--><g id="cluster_GameManagers"><path d="M1694.5,92.44 L1804.5,92.44 A3.75,3.75 0 0 1 1807,94.94 L1814,114.9283 L2114.5,114.9283 A2.5,2.5 0 0 1 2117,117.4283 L2117,499.29 A2.5,2.5 0 0 1 2114.5,501.79 L1694.5,501.79 A2.5,2.5 0 0 1 1692,499.29 L1692,94.94 A2.5,2.5 0 0 1 1694.5,92.44 " fill="none" style="stroke:#000000;stroke-width:1.5;"/><line style="stroke:#000000;stroke-width:1.5;" x1="1692" x2="1814" y1="114.9283" y2="114.9283"/><text fill="#000000" font-family="sans-serif" font-size="14" font-weight="bold" lengthAdjust="spacing" textLength="109" x="1696" y="107.9752">GameManagers</text></g><!--class PlayerParameters--><g id="elem_PlayerParameters"><rect codeLine="5" fill="#F1F1F1" height="72.9766" id="PlayerParameters" rx="2.5" ry="2.5" style="stroke:#181818;stroke-width:0.5;" width="150" x="22" y="433.3"/><ellipse cx="37" cy="449.3" fill="#ADD1B2" rx="11" ry="11" style="stroke:#181818;stroke-width:1.0;"/><path d="M39.4731,455.4431 Q38.8921,455.7419 38.2529,455.8913 Q37.6138,456.0407 36.9082,456.0407 Q34.4014,456.0407 33.0815,454.3889 Q31.7617,452.737 31.7617,449.6159 Q31.7617,446.4865 33.0815,444.8347 Q34.4014,443.1828 36.9082,443.1828 Q37.6138,443.1828 38.2612,443.3322 Q38.9087,443.4816 39.4731,443.7805 L39.4731,446.5031 Q38.8423,445.9221 38.2488,445.6523 Q37.6553,445.3825 37.0244,445.3825 Q35.6797,445.3825 34.9949,446.4492 Q34.3101,447.5158 34.3101,449.6159 Q34.3101,451.7077 34.9949,452.7744 Q35.6797,453.841 37.0244,453.841 Q37.6553,453.841 38.2488,453.5712 Q38.8423,453.3015 39.4731,452.7204 Z " fill="#000000"/><text fill="#000000" font-family="sans-serif" font-size="14" lengthAdjust="spacing" textLength="118" x="51" y="454.591">PlayerParameters</text><line style="stroke:#181818;stroke-width:0.5;" x1="23" x2="171" y1="465.3" y2="465.3"/><text fill="#000000" font-family="sans-serif" font-size="14" lengthAdjust="spacing" textLength="76" x="28" y="482.8352">+int health</text><text fill="#000000" font-family="sans-serif" font-size="14" lengthAdjust="spacing" textLength="115" x="28" y="499.3234">+int unionCount</text></g><!--class CharacterParameters--><g id="elem_CharacterParameters"><rect codeLine="10" fill="#F1F1F1" height="56.4883" id="CharacterParameters" rx="2.5" ry="2.5" style="stroke:#181818;stroke-width:0.5;" width="176" x="745" y="619.74"/><ellipse cx="760" cy="635.74" fill="#ADD1B2" rx="11" ry="11" style="stroke:#181818;stroke-width:1.0;"/><path d="M762.4731,641.8831 Q761.8921,642.1819 761.2529,642.3313 Q760.6138,642.4807 759.9082,642.4807 Q757.4014,642.4807 756.0815,640.8289 Q754.7617,639.177 754.7617,636.0559 Q754.7617,632.9265 756.0815,631.2747 Q757.4014,629.6228 759.9082,629.6228 Q760.6138,629.6228 761.2612,629.7722 Q761.9087,629.9216 762.4731,630.2205 L762.4731,632.9431 Q761.8423,632.3621 761.2488,632.0923 Q760.6553,631.8225 760.0244,631.8225 Q758.6797,631.8225 757.9949,632.8892 Q757.3101,633.9558 757.3101,636.0559 Q757.3101,638.1477 757.9949,639.2144 Q758.6797,640.281 760.0244,640.281 Q760.6553,640.281 761.2488,640.0112 Q761.8423,639.7415 762.4731,639.1604 Z " fill="#000000"/><text fill="#000000" font-family="sans-serif" font-size="14" lengthAdjust="spacing" textLength="144" x="774" y="641.031">CharacterParameters</text><line style="stroke:#181818;stroke-width:0.5;" x1="746" x2="920" y1="651.74" y2="651.74"/><text fill="#000000" font-family="sans-serif" font-size="14" lengthAdjust="spacing" textLength="125" x="751" y="669.2752">+float moveSpeed</text></g><!--class PlayerInputs--><g id="elem_PlayerInputs"><rect codeLine="14" fill="#F1F1F1" height="146.9297" id="PlayerInputs" rx="2.5" ry="2.5" style="stroke:#181818;stroke-width:0.5;" width="272" x="207" y="396.32"/><ellipse cx="296.75" cy="412.32" fill="#ADD1B2" rx="11" ry="11" style="stroke:#181818;stroke-width:1.0;"/><path d="M299.2231,418.4631 Q298.6421,418.7619 298.0029,418.9113 Q297.3638,419.0607 296.6582,419.0607 Q294.1514,419.0607 292.8315,417.4089 Q291.5117,415.757 291.5117,412.6359 Q291.5117,409.5065 292.8315,407.8547 Q294.1514,406.2028 296.6582,406.2028 Q297.3638,406.2028 298.0112,406.3522 Q298.6587,406.5016 299.2231,406.8005 L299.2231,409.5231 Q298.5923,408.9421 297.9988,408.6723 Q297.4053,408.4025 296.7744,408.4025 Q295.4297,408.4025 294.7449,409.4692 Q294.0601,410.5358 294.0601,412.6359 Q294.0601,414.7277 294.7449,415.7944 Q295.4297,416.861 296.7744,416.861 Q297.4053,416.861 297.9988,416.5912 Q298.5923,416.3215 299.2231,415.7404 Z " fill="#000000"/><text fill="#000000" font-family="sans-serif" font-size="14" lengthAdjust="spacing" textLength="84" x="317.25" y="417.611">PlayerInputs</text><line style="stroke:#181818;stroke-width:0.5;" x1="208" x2="478" y1="428.32" y2="428.32"/><text fill="#000000" font-family="sans-serif" font-size="14" lengthAdjust="spacing" textLength="129" x="213" y="445.8552">+Vector2 LeftMove</text><text fill="#000000" font-family="sans-serif" font-size="14" lengthAdjust="spacing" textLength="140" x="213" y="462.3434">+Vector2 RightMove</text><text fill="#000000" font-family="sans-serif" font-size="14" lengthAdjust="spacing" textLength="89" x="213" y="478.8317">+bool Attack</text><line style="stroke:#181818;stroke-width:0.5;" x1="208" x2="478" y1="485.7848" y2="485.7848"/><text fill="#000000" font-family="sans-serif" font-size="14" lengthAdjust="spacing" textLength="249" x="213" y="503.32">+void OnLeftMove(InputValue value)</text><text fill="#000000" font-family="sans-serif" font-size="14" lengthAdjust="spacing" textLength="260" x="213" y="519.8083">+void OnRightMove(InputValue value)</text><text fill="#000000" font-family="sans-serif" font-size="14" lengthAdjust="spacing" textLength="231" x="213" y="536.2966">+void OnAttack(InputValue value)</text></g><!--class PlayerCore--><g id="elem_PlayerCore"><rect codeLine="25" fill="#F1F1F1" height="278.8359" id="PlayerCore" rx="2.5" ry="2.5" style="stroke:#181818;stroke-width:0.5;" width="276" x="366" y="41"/><ellipse cx="462.75" cy="57" fill="#ADD1B2" rx="11" ry="11" style="stroke:#181818;stroke-width:1.0;"/><path d="M465.2231,63.1431 Q464.6421,63.4419 464.0029,63.5913 Q463.3638,63.7407 462.6582,63.7407 Q460.1514,63.7407 458.8315,62.0889 Q457.5117,60.437 457.5117,57.3159 Q457.5117,54.1865 458.8315,52.5347 Q460.1514,50.8828 462.6582,50.8828 Q463.3638,50.8828 464.0112,51.0322 Q464.6587,51.1816 465.2231,51.4805 L465.2231,54.2031 Q464.5923,53.6221 463.9988,53.3523 Q463.4053,53.0825 462.7744,53.0825 Q461.4297,53.0825 460.7449,54.1492 Q460.0601,55.2158 460.0601,57.3159 Q460.0601,59.4077 460.7449,60.4744 Q461.4297,61.541 462.7744,61.541 Q463.4053,61.541 463.9988,61.2712 Q464.5923,61.0015 465.2231,60.4204 Z " fill="#000000"/><text fill="#000000" font-family="sans-serif" font-size="14" lengthAdjust="spacing" textLength="74" x="483.25" y="62.291">PlayerCore</text><line style="stroke:#181818;stroke-width:0.5;" x1="367" x2="641" y1="73" y2="73"/><text fill="#000000" font-family="sans-serif" font-size="14" lengthAdjust="spacing" textLength="90" x="372" y="90.5352">+bool isAlive</text><text fill="#000000" font-family="sans-serif" font-size="14" lengthAdjust="spacing" textLength="146" x="372" y="107.0234">-PlayerInputs _inputs</text><text fill="#000000" font-family="sans-serif" font-size="14" lengthAdjust="spacing" textLength="200" x="372" y="123.5117">-PlayerCharacter _character1</text><text fill="#000000" font-family="sans-serif" font-size="14" lengthAdjust="spacing" textLength="200" x="372" y="140">-PlayerCharacter _character2</text><text fill="#000000" font-family="sans-serif" font-size="14" lengthAdjust="spacing" textLength="243" x="372" y="156.4883">-List&lt;PlayerPartial&gt; _partialPrefabs</text><text fill="#000000" font-family="sans-serif" font-size="14" lengthAdjust="spacing" textLength="4" x="372" y="172.9766">&#160;</text><text fill="#000000" font-family="sans-serif" font-size="14" lengthAdjust="spacing" textLength="262" x="372" y="189.4648">-PlayerParameters _defaultParameters</text><text fill="#000000" font-family="sans-serif" font-size="14" lengthAdjust="spacing" textLength="264" x="372" y="205.9531">-PlayerParameters _currentParameters</text><line style="stroke:#181818;stroke-width:0.5;" x1="367" x2="641" y1="212.9063" y2="212.9063"/><text fill="#000000" font-family="sans-serif" font-size="14" lengthAdjust="spacing" textLength="220" x="372" y="230.4414">+void TakeDamage(int damage)</text><text fill="#000000" font-family="sans-serif" font-size="14" lengthAdjust="spacing" textLength="165" x="372" y="246.9297">+void AddUnionCount()</text><text fill="#000000" font-family="sans-serif" font-size="14" lengthAdjust="spacing" textLength="126" x="372" y="263.418">+GeneratePartial()</text><text fill="#000000" font-family="sans-serif" font-size="14" lengthAdjust="spacing" textLength="76" x="372" y="279.9063">+void Die()</text><text fill="#000000" font-family="sans-serif" font-size="14" lengthAdjust="spacing" textLength="87" x="372" y="296.3945">-void Move()</text><text fill="#000000" font-family="sans-serif" font-size="14" lengthAdjust="spacing" textLength="94" x="372" y="312.8828">-void Attack()</text></g><!--class PlayerCharacter--><g id="elem_PlayerCharacter"><rect codeLine="46" fill="#F1F1F1" height="113.9531" id="PlayerCharacter" rx="2.5" ry="2.5" style="stroke:#181818;stroke-width:0.5;" width="302" x="514" y="412.81"/><ellipse cx="606.75" cy="428.81" fill="#ADD1B2" rx="11" ry="11" style="stroke:#181818;stroke-width:1.0;"/><path d="M609.2231,434.9531 Q608.6421,435.2519 608.0029,435.4013 Q607.3638,435.5507 606.6582,435.5507 Q604.1514,435.5507 602.8315,433.8989 Q601.5117,432.247 601.5117,429.1259 Q601.5117,425.9965 602.8315,424.3447 Q604.1514,422.6928 606.6582,422.6928 Q607.3638,422.6928 608.0112,422.8422 Q608.6587,422.9916 609.2231,423.2905 L609.2231,426.0131 Q608.5923,425.4321 607.9988,425.1623 Q607.4053,424.8925 606.7744,424.8925 Q605.4297,424.8925 604.7449,425.9592 Q604.0601,427.0258 604.0601,429.1259 Q604.0601,431.2177 604.7449,432.2844 Q605.4297,433.351 606.7744,433.351 Q607.4053,433.351 607.9988,433.0812 Q608.5923,432.8115 609.2231,432.2304 Z " fill="#000000"/><text fill="#000000" font-family="sans-serif" font-size="14" lengthAdjust="spacing" textLength="108" x="627.25" y="434.101">PlayerCharacter</text><line style="stroke:#181818;stroke-width:0.5;" x1="515" x2="815" y1="444.81" y2="444.81"/><text fill="#000000" font-family="sans-serif" font-size="14" lengthAdjust="spacing" textLength="288" x="520" y="462.3452">-CharacterParameters _defaultParameters</text><text fill="#000000" font-family="sans-serif" font-size="14" lengthAdjust="spacing" textLength="290" x="520" y="478.8334">-CharacterParameters _currentParameters</text><line style="stroke:#181818;stroke-width:0.5;" x1="515" x2="815" y1="485.7866" y2="485.7866"/><text fill="#000000" font-family="sans-serif" font-size="14" lengthAdjust="spacing" textLength="208" x="520" y="503.3217">+void Move(Vector3 direction)</text><text fill="#000000" font-family="sans-serif" font-size="14" lengthAdjust="spacing" textLength="265" x="520" y="519.81">+void UnitePartial(PlayerPartial partial)</text></g><!--class PlayerPartial--><g id="elem_PlayerPartial"><rect codeLine="57" fill="#F1F1F1" height="113.9531" id="PlayerPartial" rx="2.5" ry="2.5" style="stroke:#181818;stroke-width:0.5;" width="302" x="851" y="412.81"/><ellipse cx="955.75" cy="428.81" fill="#ADD1B2" rx="11" ry="11" style="stroke:#181818;stroke-width:1.0;"/><path d="M958.2231,434.9531 Q957.6421,435.2519 957.0029,435.4013 Q956.3638,435.5507 955.6582,435.5507 Q953.1514,435.5507 951.8315,433.8989 Q950.5117,432.247 950.5117,429.1259 Q950.5117,425.9965 951.8315,424.3447 Q953.1514,422.6928 955.6582,422.6928 Q956.3638,422.6928 957.0112,422.8422 Q957.6587,422.9916 958.2231,423.2905 L958.2231,426.0131 Q957.5923,425.4321 956.9988,425.1623 Q956.4053,424.8925 955.7744,424.8925 Q954.4297,424.8925 953.7449,425.9592 Q953.0601,427.0258 953.0601,429.1259 Q953.0601,431.2177 953.7449,432.2844 Q954.4297,433.351 955.7744,433.351 Q956.4053,433.351 956.9988,433.0812 Q957.5923,432.8115 958.2231,432.2304 Z " fill="#000000"/><text fill="#000000" font-family="sans-serif" font-size="14" lengthAdjust="spacing" textLength="84" x="976.25" y="434.101">PlayerPartial</text><line style="stroke:#181818;stroke-width:0.5;" x1="852" x2="1152" y1="444.81" y2="444.81"/><text fill="#000000" font-family="sans-serif" font-size="14" lengthAdjust="spacing" textLength="288" x="857" y="462.3452">-CharacterParameters _defaultParameters</text><text fill="#000000" font-family="sans-serif" font-size="14" lengthAdjust="spacing" textLength="290" x="857" y="478.8334">-CharacterParameters _currentParameters</text><line style="stroke:#181818;stroke-width:0.5;" x1="852" x2="1152" y1="485.7866" y2="485.7866"/><text fill="#000000" font-family="sans-serif" font-size="14" lengthAdjust="spacing" textLength="208" x="857" y="503.3217">+void Move(Vector3 direction)</text><text fill="#000000" font-family="sans-serif" font-size="14" lengthAdjust="spacing" textLength="220" x="857" y="519.81">-OnTriggerEnter(Collider other)</text></g><!--class EnemyCore--><g id="elem_EnemyCore"><rect codeLine="70" fill="#F1F1F1" height="196.3945" id="EnemyCore" rx="2.5" ry="2.5" style="stroke:#181818;stroke-width:0.5;" width="256" x="1209" y="82.22"/><ellipse cx="1293.75" cy="98.22" fill="#ADD1B2" rx="11" ry="11" style="stroke:#181818;stroke-width:1.0;"/><path d="M1296.2231,104.3631 Q1295.6421,104.6619 1295.0029,104.8113 Q1294.3638,104.9607 1293.6582,104.9607 Q1291.1514,104.9607 1289.8315,103.3089 Q1288.5117,101.657 1288.5117,98.5359 Q1288.5117,95.4065 1289.8315,93.7547 Q1291.1514,92.1028 1293.6582,92.1028 Q1294.3638,92.1028 1295.0112,92.2522 Q1295.6587,92.4016 1296.2231,92.7005 L1296.2231,95.4231 Q1295.5923,94.8421 1294.9988,94.5723 Q1294.4053,94.3025 1293.7744,94.3025 Q1292.4297,94.3025 1291.7449,95.3692 Q1291.0601,96.4358 1291.0601,98.5359 Q1291.0601,100.6277 1291.7449,101.6944 Q1292.4297,102.761 1293.7744,102.761 Q1294.4053,102.761 1294.9988,102.4912 Q1295.5923,102.2215 1296.2231,101.6404 Z " fill="#000000"/><text fill="#000000" font-family="sans-serif" font-size="14" lengthAdjust="spacing" textLength="78" x="1314.25" y="103.511">EnemyCore</text><line style="stroke:#181818;stroke-width:0.5;" x1="1210" x2="1464" y1="114.22" y2="114.22"/><text fill="#000000" font-family="sans-serif" font-size="14" lengthAdjust="spacing" textLength="90" x="1215" y="131.7552">+bool isAlive</text><text fill="#000000" font-family="sans-serif" font-size="14" lengthAdjust="spacing" textLength="76" x="1215" y="148.2434">+int health</text><text fill="#000000" font-family="sans-serif" font-size="14" lengthAdjust="spacing" textLength="131" x="1215" y="164.7317">-int _currentHealth</text><text fill="#000000" font-family="sans-serif" font-size="14" lengthAdjust="spacing" textLength="116" x="1215" y="181.22">+int attackCount</text><text fill="#000000" font-family="sans-serif" font-size="14" lengthAdjust="spacing" textLength="172" x="1215" y="197.7083">-int _currentAttackCount</text><text fill="#000000" font-family="sans-serif" font-size="14" lengthAdjust="spacing" textLength="244" x="1215" y="214.1966">-List&lt;EnemyAttack&gt; _attackPrefabs</text><line style="stroke:#181818;stroke-width:0.5;" x1="1210" x2="1464" y1="221.1497" y2="221.1497"/><text fill="#000000" font-family="sans-serif" font-size="14" lengthAdjust="spacing" textLength="220" x="1215" y="238.6848">+void TakeDamage(int damage)</text><text fill="#000000" font-family="sans-serif" font-size="14" lengthAdjust="spacing" textLength="76" x="1215" y="255.1731">+void Die()</text><text fill="#000000" font-family="sans-serif" font-size="14" lengthAdjust="spacing" textLength="156" x="1215" y="271.6614">-void GenerateAttack()</text></g><!--class AttackParameters--><g id="elem_AttackParameters"><rect codeLine="83" fill="#F1F1F1" height="89.4648" id="AttackParameters" rx="2.5" ry="2.5" style="stroke:#181818;stroke-width:0.5;" width="152" x="1500" y="135.69"/><ellipse cx="1515" cy="151.69" fill="#ADD1B2" rx="11" ry="11" style="stroke:#181818;stroke-width:1.0;"/><path d="M1517.4731,157.8331 Q1516.8921,158.1319 1516.2529,158.2813 Q1515.6138,158.4307 1514.9082,158.4307 Q1512.4014,158.4307 1511.0815,156.7789 Q1509.7617,155.127 1509.7617,152.0059 Q1509.7617,148.8765 1511.0815,147.2247 Q1512.4014,145.5728 1514.9082,145.5728 Q1515.6138,145.5728 1516.2612,145.7222 Q1516.9087,145.8716 1517.4731,146.1705 L1517.4731,148.8931 Q1516.8423,148.3121 1516.2488,148.0423 Q1515.6553,147.7725 1515.0244,147.7725 Q1513.6797,147.7725 1512.9949,148.8392 Q1512.3101,149.9058 1512.3101,152.0059 Q1512.3101,154.0977 1512.9949,155.1644 Q1513.6797,156.231 1515.0244,156.231 Q1515.6553,156.231 1516.2488,155.9612 Q1516.8423,155.6915 1517.4731,155.1104 Z " fill="#000000"/><text fill="#000000" font-family="sans-serif" font-size="14" lengthAdjust="spacing" textLength="120" x="1529" y="156.981">AttackParameters</text><line style="stroke:#181818;stroke-width:0.5;" x1="1501" x2="1651" y1="167.69" y2="167.69"/><text fill="#000000" font-family="sans-serif" font-size="14" lengthAdjust="spacing" textLength="125" x="1506" y="185.2252">+float moveSpeed</text><text fill="#000000" font-family="sans-serif" font-size="14" lengthAdjust="spacing" textLength="119" x="1506" y="201.7134">+float chaseTime</text><text fill="#000000" font-family="sans-serif" font-size="14" lengthAdjust="spacing" textLength="128" x="1506" y="218.2017">+float remainTime</text></g><!--class EnemyAttack--><g id="elem_EnemyAttack"><rect codeLine="89" fill="#F1F1F1" height="179.9063" id="EnemyAttack" rx="2.5" ry="2.5" style="stroke:#181818;stroke-width:0.5;" width="285" x="1208.5" y="379.84"/><ellipse cx="1302.75" cy="395.84" fill="#ADD1B2" rx="11" ry="11" style="stroke:#181818;stroke-width:1.0;"/><path d="M1305.2231,401.9831 Q1304.6421,402.2819 1304.0029,402.4313 Q1303.3638,402.5807 1302.6582,402.5807 Q1300.1514,402.5807 1298.8315,400.9289 Q1297.5117,399.277 1297.5117,396.1559 Q1297.5117,393.0265 1298.8315,391.3747 Q1300.1514,389.7228 1302.6582,389.7228 Q1303.3638,389.7228 1304.0112,389.8722 Q1304.6587,390.0216 1305.2231,390.3205 L1305.2231,393.0431 Q1304.5923,392.4621 1303.9988,392.1923 Q1303.4053,391.9225 1302.7744,391.9225 Q1301.4297,391.9225 1300.7449,392.9892 Q1300.0601,394.0558 1300.0601,396.1559 Q1300.0601,398.2477 1300.7449,399.3144 Q1301.4297,400.381 1302.7744,400.381 Q1303.4053,400.381 1303.9988,400.1112 Q1304.5923,399.8415 1305.2231,399.2604 Z " fill="#000000"/><text fill="#000000" font-family="sans-serif" font-size="14" lengthAdjust="spacing" textLength="88" x="1323.25" y="401.131">EnemyAttack</text><line style="stroke:#181818;stroke-width:0.5;" x1="1209.5" x2="1492.5" y1="411.84" y2="411.84"/><text fill="#000000" font-family="sans-serif" font-size="14" lengthAdjust="spacing" textLength="98" x="1214.5" y="429.3752">+bool isActive</text><text fill="#000000" font-family="sans-serif" font-size="14" lengthAdjust="spacing" textLength="217" x="1214.5" y="445.8634">-AttackParameters _parameters</text><text fill="#000000" font-family="sans-serif" font-size="14" lengthAdjust="spacing" textLength="168" x="1214.5" y="462.3517">-PlayerCharacter _target</text><text fill="#000000" font-family="sans-serif" font-size="14" lengthAdjust="spacing" textLength="122" x="1214.5" y="478.84">-float moveSpeed</text><line style="stroke:#181818;stroke-width:0.5;" x1="1209.5" x2="1492.5" y1="485.7931" y2="485.7931"/><text fill="#000000" font-family="sans-serif" font-size="14" lengthAdjust="spacing" textLength="273" x="1214.5" y="503.3283">+void SetTarget(PlayerCharacter target)</text><text fill="#000000" font-family="sans-serif" font-size="14" lengthAdjust="spacing" textLength="87" x="1214.5" y="519.8166">-void Move()</text><text fill="#000000" font-family="sans-serif" font-size="14" lengthAdjust="spacing" textLength="94" x="1214.5" y="536.3048">-void Attack()</text><text fill="#000000" font-family="sans-serif" font-size="14" lengthAdjust="spacing" textLength="253" x="1214.5" y="552.7931">-void OnTriggerEnter(Collider other)</text></g><!--class Knife--><g id="elem_Knife"><rect codeLine="103" fill="#F1F1F1" height="32" id="Knife" rx="2.5" ry="2.5" style="stroke:#181818;stroke-width:0.5;" width="67" x="1221.5" y="631.99"/><ellipse cx="1236.5" cy="647.99" fill="#ADD1B2" rx="11" ry="11" style="stroke:#181818;stroke-width:1.0;"/><path d="M1238.9731,654.1331 Q1238.3921,654.4319 1237.7529,654.5813 Q1237.1138,654.7307 1236.4082,654.7307 Q1233.9014,654.7307 1232.5815,653.0789 Q1231.2617,651.427 1231.2617,648.3059 Q1231.2617,645.1765 1232.5815,643.5247 Q1233.9014,641.8728 1236.4082,641.8728 Q1237.1138,641.8728 1237.7612,642.0222 Q1238.4087,642.1716 1238.9731,642.4705 L1238.9731,645.1931 Q1238.3423,644.6121 1237.7488,644.3423 Q1237.1553,644.0725 1236.5244,644.0725 Q1235.1797,644.0725 1234.4949,645.1392 Q1233.8101,646.2058 1233.8101,648.3059 Q1233.8101,650.3977 1234.4949,651.4644 Q1235.1797,652.531 1236.5244,652.531 Q1237.1553,652.531 1237.7488,652.2612 Q1238.3423,651.9915 1238.9731,651.4104 Z " fill="#000000"/><text fill="#000000" font-family="sans-serif" font-size="14" lengthAdjust="spacing" textLength="35" x="1250.5" y="653.281">Knife</text></g><!--class Pot--><g id="elem_Pot"><rect codeLine="104" fill="#F1F1F1" height="32" id="Pot" rx="2.5" ry="2.5" style="stroke:#181818;stroke-width:0.5;" width="54" x="1324" y="631.99"/><ellipse cx="1339" cy="647.99" fill="#ADD1B2" rx="11" ry="11" style="stroke:#181818;stroke-width:1.0;"/><path d="M1341.4731,654.1331 Q1340.8921,654.4319 1340.2529,654.5813 Q1339.6138,654.7307 1338.9082,654.7307 Q1336.4014,654.7307 1335.0815,653.0789 Q1333.7617,651.427 1333.7617,648.3059 Q1333.7617,645.1765 1335.0815,643.5247 Q1336.4014,641.8728 1338.9082,641.8728 Q1339.6138,641.8728 1340.2612,642.0222 Q1340.9087,642.1716 1341.4731,642.4705 L1341.4731,645.1931 Q1340.8423,644.6121 1340.2488,644.3423 Q1339.6553,644.0725 1339.0244,644.0725 Q1337.6797,644.0725 1336.9949,645.1392 Q1336.3101,646.2058 1336.3101,648.3059 Q1336.3101,650.3977 1336.9949,651.4644 Q1337.6797,652.531 1339.0244,652.531 Q1339.6553,652.531 1340.2488,652.2612 Q1340.8423,651.9915 1341.4731,651.4104 Z " fill="#000000"/><text fill="#000000" font-family="sans-serif" font-size="14" lengthAdjust="spacing" textLength="22" x="1353" y="653.281">Pot</text></g><!--class Rod--><g id="elem_Rod"><rect codeLine="105" fill="#F1F1F1" height="32" id="Rod" rx="2.5" ry="2.5" style="stroke:#181818;stroke-width:0.5;" width="59" x="1412.5" y="631.99"/><ellipse cx="1427.5" cy="647.99" fill="#ADD1B2" rx="11" ry="11" style="stroke:#181818;stroke-width:1.0;"/><path d="M1429.9731,654.1331 Q1429.3921,654.4319 1428.7529,654.5813 Q1428.1138,654.7307 1427.4082,654.7307 Q1424.9014,654.7307 1423.5815,653.0789 Q1422.2617,651.427 1422.2617,648.3059 Q1422.2617,645.1765 1423.5815,643.5247 Q1424.9014,641.8728 1427.4082,641.8728 Q1428.1138,641.8728 1428.7612,642.0222 Q1429.4087,642.1716 1429.9731,642.4705 L1429.9731,645.1931 Q1429.3423,644.6121 1428.7488,644.3423 Q1428.1553,644.0725 1427.5244,644.0725 Q1426.1797,644.0725 1425.4949,645.1392 Q1424.8101,646.2058 1424.8101,648.3059 Q1424.8101,650.3977 1425.4949,651.4644 Q1426.1797,652.531 1427.5244,652.531 Q1428.1553,652.531 1428.7488,652.2612 Q1429.3423,651.9915 1429.9731,651.4104 Z " fill="#000000"/><text fill="#000000" font-family="sans-serif" font-size="14" lengthAdjust="spacing" textLength="27" x="1441.5" y="653.281">Rod</text></g><!--class MainGameManager--><g id="elem_MainGameManager"><rect codeLine="113" fill="#F1F1F1" height="72.9766" id="MainGameManager" rx="2.5" ry="2.5" style="stroke:#181818;stroke-width:0.5;" width="254" x="1708" y="143.93"/><ellipse cx="1764.75" cy="159.93" fill="#ADD1B2" rx="11" ry="11" style="stroke:#181818;stroke-width:1.0;"/><path d="M1767.2231,166.0731 Q1766.6421,166.3719 1766.0029,166.5213 Q1765.3638,166.6707 1764.6582,166.6707 Q1762.1514,166.6707 1760.8315,165.0189 Q1759.5117,163.367 1759.5117,160.2459 Q1759.5117,157.1165 1760.8315,155.4647 Q1762.1514,153.8128 1764.6582,153.8128 Q1765.3638,153.8128 1766.0112,153.9622 Q1766.6587,154.1116 1767.2231,154.4105 L1767.2231,157.1331 Q1766.5923,156.5521 1765.9988,156.2823 Q1765.4053,156.0125 1764.7744,156.0125 Q1763.4297,156.0125 1762.7449,157.0792 Q1762.0601,158.1458 1762.0601,160.2459 Q1762.0601,162.3377 1762.7449,163.4044 Q1763.4297,164.471 1764.7744,164.471 Q1765.4053,164.471 1765.9988,164.2012 Q1766.5923,163.9315 1767.2231,163.3504 Z " fill="#000000"/><text fill="#000000" font-family="sans-serif" font-size="14" lengthAdjust="spacing" textLength="132" x="1785.25" y="165.221">MainGameManager</text><line style="stroke:#181818;stroke-width:0.5;" x1="1709" x2="1961" y1="175.93" y2="175.93"/><text fill="#000000" font-family="sans-serif" font-size="14" lengthAdjust="spacing" textLength="121" x="1714" y="193.4652">+GameState state</text><text fill="#000000" font-family="sans-serif" font-size="14" lengthAdjust="spacing" textLength="242" x="1714" y="209.9534">-GameTimeManager _timeManager</text></g><!--class GameState--><g id="elem_GameState"><rect codeLine="118" fill="#F1F1F1" height="105.9531" id="GameState" rx="2.5" ry="2.5" style="stroke:#181818;stroke-width:0.5;" width="105" x="1996.5" y="127.44"/><ellipse cx="2011.5" cy="143.44" fill="#EB937F" rx="11" ry="11" style="stroke:#181818;stroke-width:1.0;"/><path d="M2015.1143,149.94 L2007.3945,149.94 L2007.3945,137.5469 L2015.1143,137.5469 L2015.1143,139.7051 L2009.8433,139.7051 L2009.8433,142.378 L2014.6162,142.378 L2014.6162,144.5362 L2009.8433,144.5362 L2009.8433,147.7818 L2015.1143,147.7818 Z " fill="#000000"/><text fill="#000000" font-family="sans-serif" font-size="14" lengthAdjust="spacing" textLength="73" x="2025.5" y="148.731">GameState</text><line style="stroke:#181818;stroke-width:0.5;" x1="1997.5" x2="2100.5" y1="159.44" y2="159.44"/><text fill="#000000" font-family="sans-serif" font-size="14" lengthAdjust="spacing" textLength="41" x="2002.5" y="176.9752">+Title</text><text fill="#000000" font-family="sans-serif" font-size="14" lengthAdjust="spacing" textLength="38" x="2002.5" y="193.4634">+Run</text><text fill="#000000" font-family="sans-serif" font-size="14" lengthAdjust="spacing" textLength="46" x="2002.5" y="209.9517">+Fight</text><text fill="#000000" font-family="sans-serif" font-size="14" lengthAdjust="spacing" textLength="53" x="2002.5" y="226.44">+Result</text></g><!--class GameTimeManager--><g id="elem_GameTimeManager"><rect codeLine="125" fill="#F1F1F1" height="32" id="GameTimeManager" rx="2.5" ry="2.5" style="stroke:#181818;stroke-width:0.5;" width="165" x="1752.5" y="453.79"/><ellipse cx="1767.5" cy="469.79" fill="#ADD1B2" rx="11" ry="11" style="stroke:#181818;stroke-width:1.0;"/><path d="M1769.9731,475.9331 Q1769.3921,476.2319 1768.7529,476.3813 Q1768.1138,476.5307 1767.4082,476.5307 Q1764.9014,476.5307 1763.5815,474.8789 Q1762.2617,473.227 1762.2617,470.1059 Q1762.2617,466.9765 1763.5815,465.3247 Q1764.9014,463.6728 1767.4082,463.6728 Q1768.1138,463.6728 1768.7612,463.8222 Q1769.4087,463.9716 1769.9731,464.2705 L1769.9731,466.9931 Q1769.3423,466.4121 1768.7488,466.1423 Q1768.1553,465.8725 1767.5244,465.8725 Q1766.1797,465.8725 1765.4949,466.9392 Q1764.8101,468.0058 1764.8101,470.1059 Q1764.8101,472.1977 1765.4949,473.2644 Q1766.1797,474.331 1767.5244,474.331 Q1768.1553,474.331 1768.7488,474.0612 Q1769.3423,473.7915 1769.9731,473.2104 Z " fill="#000000"/><text fill="#000000" font-family="sans-serif" font-size="14" lengthAdjust="spacing" textLength="133" x="1781.5" y="475.081">GameTimeManager</text></g><!--link PlayerCore to PlayerInputs--><g id="link_PlayerCore_PlayerInputs"><path codeLine="43" d="M426.33,320.05 C411.61,346.32 399.7013,367.5748 386.7113,390.7748 " fill="none" id="PlayerCore-to-PlayerInputs" style="stroke:#181818;stroke-width:1.0;"/><polygon fill="#181818" points="383.78,396.01,391.6671,390.1113,386.2227,391.6473,384.6868,386.203,383.78,396.01" style="stroke:#181818;stroke-width:1.0;"/></g><!--reverse link PlayerCore to PlayerParameters--><g id="link_PlayerCore_PlayerParameters"><path codeLine="44" d="M355.4688,266.2316 C298.8988,300.5316 244.17,336.54 189,379.84 C168.38,396.02 147.22,416.18 130.4,433.22 " fill="none" id="PlayerCore-backto-PlayerParameters" style="stroke:#181818;stroke-width:1.0;"/><polygon fill="#181818" points="365.73,260.01,358.5255,259.7004,355.4688,266.2316,362.6733,266.5412,365.73,260.01" style="stroke:#181818;stroke-width:1.0;"/></g><!--reverse link PlayerCore to PlayerCharacter--><g id="link_PlayerCore_PlayerCharacter"><path codeLine="54" d="M587.5335,330.5199 C605.8635,363.2499 618.53,385.85 633.45,412.47 " fill="none" id="PlayerCore-backto-PlayerCharacter" style="stroke:#181818;stroke-width:1.0;"/><polygon fill="#181818" points="581.67,320.05,581.1118,327.2395,587.5335,330.5199,588.0917,323.3304,581.67,320.05" style="stroke:#181818;stroke-width:1.0;"/></g><!--reverse link PlayerCharacter to CharacterParameters--><g id="link_PlayerCharacter_CharacterParameters"><path codeLine="55" d="M726.8999,535.7058 C756.2799,566.5258 783.12,594.67 806.62,619.32 " fill="none" id="PlayerCharacter-backto-CharacterParameters" style="stroke:#181818;stroke-width:1.0;"/><polygon fill="#181818" points="718.62,527.02,719.8647,534.1229,726.8999,535.7058,725.6552,528.6029,718.62,527.02" style="stroke:#181818;stroke-width:1.0;"/></g><!--link PlayerCore to PlayerPartial--><g id="link_PlayerCore_PlayerPartial"><path codeLine="65" d="M642.39,261.28 C725.72,309.36 824.583,366.4115 899.303,409.5215 " fill="none" id="PlayerCore-to-PlayerPartial" style="stroke:#181818;stroke-width:1.0;"/><polygon fill="#181818" points="904.5,412.52,898.7034,404.5576,900.1691,410.0213,894.7055,411.487,904.5,412.52" style="stroke:#181818;stroke-width:1.0;"/></g><!--reverse link PlayerPartial to CharacterParameters--><g id="link_PlayerPartial_CharacterParameters"><path codeLine="66" d="M939.7536,535.6805 C910.1936,566.5005 883.18,594.67 859.54,619.32 " fill="none" id="PlayerPartial-backto-CharacterParameters" style="stroke:#181818;stroke-width:1.0;"/><polygon fill="#181818" points="948.06,527.02,941.02,528.5814,939.7536,535.6805,946.7936,534.119,948.06,527.02" style="stroke:#181818;stroke-width:1.0;"/></g><!--reverse link EnemyCore to EnemyAttack--><g id="link_EnemyCore_EnemyAttack"><path codeLine="101" d="M1342.342,291.0959 C1343.922,323.6359 1345.1,347.71 1346.65,379.58 " fill="none" id="EnemyCore-backto-EnemyAttack" style="stroke:#181818;stroke-width:1.0;"/><polygon fill="#181818" points="1341.76,279.11,1338.0557,285.2969,1342.342,291.0959,1346.0463,284.9089,1341.76,279.11" style="stroke:#181818;stroke-width:1.0;"/></g><!--reverse link EnemyAttack to Knife--><g id="link_EnemyAttack_Knife"><path codeLine="107" d="M1293.6871,575.9856 C1278.6471,603.5856 1272.31,615.21 1263.37,631.63 " fill="none" id="EnemyAttack-backto-Knife" style="stroke:#181818;stroke-width:1.0;"/><polygon fill="none" points="1302.3,560.18,1288.4185,573.1146,1298.9556,578.8566,1302.3,560.18" style="stroke:#181818;stroke-width:1.0;"/></g><!--reverse link EnemyAttack to Pot--><g id="link_EnemyAttack_Pot"><path codeLine="108" d="M1351,578.18 C1351,605.78 1351,615.21 1351,631.63 " fill="none" id="EnemyAttack-backto-Pot" style="stroke:#181818;stroke-width:1.0;"/><polygon fill="none" points="1351,560.18,1345,578.18,1357,578.18,1351,560.18" style="stroke:#181818;stroke-width:1.0;"/></g><!--reverse link EnemyAttack to Rod--><g id="link_EnemyAttack_Rod"><path codeLine="109" d="M1405.4278,576.174 C1419.6778,603.774 1425.59,615.21 1434.07,631.63 " fill="none" id="EnemyAttack-backto-Rod" style="stroke:#181818;stroke-width:1.0;"/><polygon fill="none" points="1397.17,560.18,1400.0964,578.9266,1410.7591,573.4214,1397.17,560.18" style="stroke:#181818;stroke-width:1.0;"/></g><!--link MainGameManager to GameTimeManager--><g id="link_MainGameManager_GameTimeManager"><path codeLine="127" d="M1835,217.23 C1835,280.42 1835,403.22 1835,447.46 " fill="none" id="MainGameManager-to-GameTimeManager" style="stroke:#181818;stroke-width:1.0;"/><polygon fill="#181818" points="1835,453.46,1839,444.46,1835,448.46,1831,444.46,1835,453.46" style="stroke:#181818;stroke-width:1.0;"/></g><!--SRC=[pLPDZvim4BtpAtnaMo6rs-jgfIYxtQwwKQCatIjoO1AiW8sCYPIc-z_hZm039fkqf-P0pBpni-VDU4orOxoaaXOaoMbLJPIIR5qhU4u4Nx9VG3u56Kk1G56g0ocWM8EiWe3J0ggI9a3cEJre4pa6HFyioSasDxIWDEWmy_j865Sa0vghR62iEHDyAcgkBF0M8C9ffhaITOvpamkgI27si2m1Kd- -sz0pBslLc_WAYHBobhp0Hitqz15emRRP45iBaHCj5Krs0JBl1Kl93zwGXNQzLvhNGFRcUUFxjkpNEBiLptZgUBs0fq82EGutpgf9pb0yKKyU4ZFxxy5j3aYSDCFFLtdT8gyNLgcxjZuKe_azYKitcalOq7KLUAHTracSQfywLvtfNU-abX8uzXxAkg8xUA05tK9egZ2rGq_yIPh-REipnF0JS91KmIcQq9lwm00P8sUqAVUifmJVu096cOoY-rwgXlY7o9TWf2ZQ31tH-YCdx7sjHoTSbji6xixM5v8ogKTQLayqBNOdQQzSoAbOpedKYT3k4BkqmHk_aHY2iJPcr_qVrOfqLrX9jjs2VEIQ8PoAFDVjMXAXCf2N2-aK779emZsdpnjk_eySYaElzLlBTNrdz2w8hB6HvjlOHK7jAUbk2d_QPDJ3jXwxFuVhnkEelBxpLwrXz7mtNM7iH3kX78BAuTA5XX7TMYjOiG8yH4916M-Xtf8ezj7iwEBgNGlU5kFoVDT5ZLzHkGMi_32SeOHBK2ix9nnoEQf_QP_8VlqPwQhNb3_I2yludRCDu3OXNAnJ-xOGAU8wgNttMzDrypoeeV00mzOxSKzwDADS5-BWcskcqux0NeADVQbqEPBAF94-1Z75qioALVU2XG5U5nqDvbunbUCoNDGSlNqrtpSOXKgtIByq1_jmq30aqxQ6Zc_17m00]--></g></svg>