<?xml version="1.0" encoding="us-ascii" standalone="no"?><svg xmlns="http://www.w3.org/2000/svg" xmlns:xlink="http://www.w3.org/1999/xlink" contentStyleType="text/css" height="542px" preserveAspectRatio="none" style="width:1552px;height:542px;background:#FFFFFF;" version="1.1" viewBox="0 0 1552 542" width="1552px" zoomAndPan="magnify"><defs/><g><!--cluster Players--><g id="cluster_Players"><path d="M8.5,14.5 L60.5,14.5 A3.75,3.75 0 0 1 63,17 L70,38.1094 L809.5,38.1094 A2.5,2.5 0 0 1 812,40.6094 L812,440.5 A2.5,2.5 0 0 1 809.5,443 L8.5,443 A2.5,2.5 0 0 1 6,440.5 L6,17 A2.5,2.5 0 0 1 8.5,14.5 " fill="none" style="stroke:#000000;stroke-width:1.5;"/><line style="stroke:#000000;stroke-width:1.5;" x1="6" x2="70" y1="38.1094" y2="38.1094"/><text fill="#000000" font-family="sans-serif" font-size="14" font-weight="bold" lengthAdjust="spacing" textLength="51" x="10" y="31.0332">Players</text></g><!--cluster Enemy--><g id="cluster_Enemy"><path d="M838.5,6 L885.5,6 A3.75,3.75 0 0 1 888,8.5 L895,29.6094 L1111.5,29.6094 A2.5,2.5 0 0 1 1114,32.1094 L1114,532.5 A2.5,2.5 0 0 1 1111.5,535 L838.5,535 A2.5,2.5 0 0 1 836,532.5 L836,8.5 A2.5,2.5 0 0 1 838.5,6 " fill="none" style="stroke:#000000;stroke-width:1.5;"/><line style="stroke:#000000;stroke-width:1.5;" x1="836" x2="895" y1="29.6094" y2="29.6094"/><text fill="#000000" font-family="sans-serif" font-size="14" font-weight="bold" lengthAdjust="spacing" textLength="46" x="840" y="22.5332">Enemy</text></g><!--cluster GameManagers--><g id="cluster_GameManagers"><path d="M1140.5,18.5 L1251.5,18.5 A3.75,3.75 0 0 1 1254,21 L1261,42.1094 L1542.5,42.1094 A2.5,2.5 0 0 1 1545,44.6094 L1545,379.5 A2.5,2.5 0 0 1 1542.5,382 L1140.5,382 A2.5,2.5 0 0 1 1138,379.5 L1138,21 A2.5,2.5 0 0 1 1140.5,18.5 " fill="none" style="stroke:#000000;stroke-width:1.5;"/><line style="stroke:#000000;stroke-width:1.5;" x1="1138" x2="1261" y1="42.1094" y2="42.1094"/><text fill="#000000" font-family="sans-serif" font-size="14" font-weight="bold" lengthAdjust="spacing" textLength="110" x="1142" y="35.0332">GameManagers</text></g><!--class CharacterParameters--><g id="elem_CharacterParameters"><rect codeLine="5" fill="#F1F1F1" height="75.2188" id="CharacterParameters" rx="2.5" ry="2.5" style="stroke:#181818;stroke-width:0.5;" width="168" x="341" y="312.5"/><ellipse cx="356" cy="328.5" fill="#ADD1B2" rx="11" ry="11" style="stroke:#181818;stroke-width:1.0;"/><path d="M359.5156,329.8594 Q359.2969,333.2344 358.1563,334.3594 Q357.1563,335.3594 355.7813,335.3594 Q354.4063,335.3594 353.4063,334.3594 Q351.6719,332.625 351.6719,328.9844 Q351.6719,324.7656 353.5313,322.8906 Q354.5469,321.8906 355.8438,321.8906 Q357.2188,321.8906 358.0313,322.6875 Q359.5,324.1719 359.4375,326.9375 L357.4375,326.9375 Q357.375,324.6563 356.7188,324 Q356.4063,323.6719 355.8438,323.6719 Q355.3594,323.6719 354.9688,324.0625 Q353.7188,325.3125 353.7188,328.8594 Q353.7188,331.9375 354.7813,332.9844 Q355.2344,333.4375 355.7813,333.4375 Q356.2656,333.4375 356.7188,332.9844 Q357.3125,332.4063 357.375,329.8594 L359.5156,329.8594 Z " fill="#000000"/><text fill="#000000" font-family="sans-serif" font-size="14" lengthAdjust="spacing" textLength="136" x="370" y="334.2285">CharacterParameters</text><line style="stroke:#181818;stroke-width:0.5;" x1="342" x2="508" y1="344.5" y2="344.5"/><text fill="#000000" font-family="sans-serif" font-size="14" lengthAdjust="spacing" textLength="114" x="347" y="363.0332">+float moveSpeed</text><text fill="#000000" font-family="sans-serif" font-size="14" lengthAdjust="spacing" textLength="66" x="347" y="380.6426">+int health</text></g><!--class PlayerInputs--><g id="elem_PlayerInputs"><rect codeLine="10" fill="#F1F1F1" height="153.6563" id="PlayerInputs" rx="2.5" ry="2.5" style="stroke:#181818;stroke-width:0.5;" width="251" x="544.5" y="273"/><ellipse cx="626.75" cy="289" fill="#ADD1B2" rx="11" ry="11" style="stroke:#181818;stroke-width:1.0;"/><path d="M630.2656,290.3594 Q630.0469,293.7344 628.9063,294.8594 Q627.9063,295.8594 626.5313,295.8594 Q625.1563,295.8594 624.1563,294.8594 Q622.4219,293.125 622.4219,289.4844 Q622.4219,285.2656 624.2813,283.3906 Q625.2969,282.3906 626.5938,282.3906 Q627.9688,282.3906 628.7813,283.1875 Q630.25,284.6719 630.1875,287.4375 L628.1875,287.4375 Q628.125,285.1563 627.4688,284.5 Q627.1563,284.1719 626.5938,284.1719 Q626.1094,284.1719 625.7188,284.5625 Q624.4688,285.8125 624.4688,289.3594 Q624.4688,292.4375 625.5313,293.4844 Q625.9844,293.9375 626.5313,293.9375 Q627.0156,293.9375 627.4688,293.4844 Q628.0625,292.9063 628.125,290.3594 L630.2656,290.3594 Z " fill="#000000"/><text fill="#000000" font-family="sans-serif" font-size="14" lengthAdjust="spacing" textLength="78" x="647.25" y="294.7285">PlayerInputs</text><line style="stroke:#181818;stroke-width:0.5;" x1="545.5" x2="794.5" y1="305" y2="305"/><text fill="#000000" font-family="sans-serif" font-size="14" lengthAdjust="spacing" textLength="119" x="550.5" y="323.5332">+Vector2 LeftMove</text><text fill="#000000" font-family="sans-serif" font-size="14" lengthAdjust="spacing" textLength="128" x="550.5" y="341.1426">+Vector2 RightMove</text><text fill="#000000" font-family="sans-serif" font-size="14" lengthAdjust="spacing" textLength="78" x="550.5" y="358.752">+bool Attack</text><line style="stroke:#181818;stroke-width:0.5;" x1="545.5" x2="794.5" y1="365.8281" y2="365.8281"/><text fill="#000000" font-family="sans-serif" font-size="14" lengthAdjust="spacing" textLength="230" x="550.5" y="384.3613">+void OnLeftMove(InputValue value)</text><text fill="#000000" font-family="sans-serif" font-size="14" lengthAdjust="spacing" textLength="239" x="550.5" y="401.9707">+void OnRightMove(InputValue value)</text><text fill="#000000" font-family="sans-serif" font-size="14" lengthAdjust="spacing" textLength="211" x="550.5" y="419.5801">+void OnAttack(InputValue value)</text></g><!--class PlayerCore--><g id="elem_PlayerCore"><rect codeLine="21" fill="#F1F1F1" height="153.6563" id="PlayerCore" rx="2.5" ry="2.5" style="stroke:#181818;stroke-width:0.5;" width="200" x="317" y="50.5"/><ellipse cx="377.25" cy="66.5" fill="#ADD1B2" rx="11" ry="11" style="stroke:#181818;stroke-width:1.0;"/><path d="M380.7656,67.8594 Q380.5469,71.2344 379.4063,72.3594 Q378.4063,73.3594 377.0313,73.3594 Q375.6563,73.3594 374.6563,72.3594 Q372.9219,70.625 372.9219,66.9844 Q372.9219,62.7656 374.7813,60.8906 Q375.7969,59.8906 377.0938,59.8906 Q378.4688,59.8906 379.2813,60.6875 Q380.75,62.1719 380.6875,64.9375 L378.6875,64.9375 Q378.625,62.6563 377.9688,62 Q377.6563,61.6719 377.0938,61.6719 Q376.6094,61.6719 376.2188,62.0625 Q374.9688,63.3125 374.9688,66.8594 Q374.9688,69.9375 376.0313,70.9844 Q376.4844,71.4375 377.0313,71.4375 Q377.5156,71.4375 377.9688,70.9844 Q378.5625,70.4063 378.625,67.8594 L380.7656,67.8594 Z " fill="#000000"/><text fill="#000000" font-family="sans-serif" font-size="14" lengthAdjust="spacing" textLength="71" x="397.75" y="72.2285">PlayerCore</text><line style="stroke:#181818;stroke-width:0.5;" x1="318" x2="516" y1="82.5" y2="82.5"/><text fill="#000000" font-family="sans-serif" font-size="14" lengthAdjust="spacing" textLength="79" x="323" y="101.0332">+bool isAlive</text><text fill="#000000" font-family="sans-serif" font-size="14" lengthAdjust="spacing" textLength="133" x="323" y="118.6426">-PlayerInputs _inputs</text><text fill="#000000" font-family="sans-serif" font-size="14" lengthAdjust="spacing" textLength="188" x="323" y="136.252">-PlayerCharacter _character1</text><text fill="#000000" font-family="sans-serif" font-size="14" lengthAdjust="spacing" textLength="188" x="323" y="153.8613">-PlayerCharacter _character2</text><line style="stroke:#181818;stroke-width:0.5;" x1="318" x2="516" y1="160.9375" y2="160.9375"/><text fill="#000000" font-family="sans-serif" font-size="14" lengthAdjust="spacing" textLength="79" x="323" y="179.4707">-void Move()</text><text fill="#000000" font-family="sans-serif" font-size="14" lengthAdjust="spacing" textLength="84" x="323" y="197.0801">-void Attack()</text></g><!--class PlayerCharacter--><g id="elem_PlayerCharacter"><rect codeLine="33" fill="#F1F1F1" height="153.6563" id="PlayerCharacter" rx="2.5" ry="2.5" style="stroke:#181818;stroke-width:0.5;" width="283" x="22.5" y="273"/><ellipse cx="108.25" cy="289" fill="#ADD1B2" rx="11" ry="11" style="stroke:#181818;stroke-width:1.0;"/><path d="M111.7656,290.3594 Q111.5469,293.7344 110.4063,294.8594 Q109.4063,295.8594 108.0313,295.8594 Q106.6563,295.8594 105.6563,294.8594 Q103.9219,293.125 103.9219,289.4844 Q103.9219,285.2656 105.7813,283.3906 Q106.7969,282.3906 108.0938,282.3906 Q109.4688,282.3906 110.2813,283.1875 Q111.75,284.6719 111.6875,287.4375 L109.6875,287.4375 Q109.625,285.1563 108.9688,284.5 Q108.6563,284.1719 108.0938,284.1719 Q107.6094,284.1719 107.2188,284.5625 Q105.9688,285.8125 105.9688,289.3594 Q105.9688,292.4375 107.0313,293.4844 Q107.4844,293.9375 108.0313,293.9375 Q108.5156,293.9375 108.9688,293.4844 Q109.5625,292.9063 109.625,290.3594 L111.7656,290.3594 Z " fill="#000000"/><text fill="#000000" font-family="sans-serif" font-size="14" lengthAdjust="spacing" textLength="103" x="128.75" y="294.7285">PlayerCharacter</text><line style="stroke:#181818;stroke-width:0.5;" x1="23.5" x2="304.5" y1="305" y2="305"/><text fill="#000000" font-family="sans-serif" font-size="14" lengthAdjust="spacing" textLength="79" x="28.5" y="323.5332">+bool isAlive</text><text fill="#000000" font-family="sans-serif" font-size="14" lengthAdjust="spacing" textLength="269" x="28.5" y="341.1426">-CharacterParameters _defaultParameters</text><text fill="#000000" font-family="sans-serif" font-size="14" lengthAdjust="spacing" textLength="271" x="28.5" y="358.752">-CharacterParameters _currentParameters</text><line style="stroke:#181818;stroke-width:0.5;" x1="23.5" x2="304.5" y1="365.8281" y2="365.8281"/><text fill="#000000" font-family="sans-serif" font-size="14" lengthAdjust="spacing" textLength="203" x="28.5" y="384.3613">+void TakeDamage(int damage)</text><text fill="#000000" font-family="sans-serif" font-size="14" lengthAdjust="spacing" textLength="189" x="28.5" y="401.9707">+void Move(Vector2 direction)</text><text fill="#000000" font-family="sans-serif" font-size="14" lengthAdjust="spacing" textLength="69" x="28.5" y="419.5801">+void Die()</text></g><!--class EnemyCore--><g id="elem_EnemyCore"><rect codeLine="48" fill="#F1F1F1" height="171.2656" id="EnemyCore" rx="2.5" ry="2.5" style="stroke:#181818;stroke-width:0.5;" width="236" x="859" y="42"/><ellipse cx="935.75" cy="58" fill="#ADD1B2" rx="11" ry="11" style="stroke:#181818;stroke-width:1.0;"/><path d="M939.2656,59.3594 Q939.0469,62.7344 937.9063,63.8594 Q936.9063,64.8594 935.5313,64.8594 Q934.1563,64.8594 933.1563,63.8594 Q931.4219,62.125 931.4219,58.4844 Q931.4219,54.2656 933.2813,52.3906 Q934.2969,51.3906 935.5938,51.3906 Q936.9688,51.3906 937.7813,52.1875 Q939.25,53.6719 939.1875,56.4375 L937.1875,56.4375 Q937.125,54.1563 936.4688,53.5 Q936.1563,53.1719 935.5938,53.1719 Q935.1094,53.1719 934.7188,53.5625 Q933.4688,54.8125 933.4688,58.3594 Q933.4688,61.4375 934.5313,62.4844 Q934.9844,62.9375 935.5313,62.9375 Q936.0156,62.9375 936.4688,62.4844 Q937.0625,61.9063 937.125,59.3594 L939.2656,59.3594 Z " fill="#000000"/><text fill="#000000" font-family="sans-serif" font-size="14" lengthAdjust="spacing" textLength="74" x="956.25" y="63.7285">EnemyCore</text><line style="stroke:#181818;stroke-width:0.5;" x1="860" x2="1094" y1="74" y2="74"/><text fill="#000000" font-family="sans-serif" font-size="14" lengthAdjust="spacing" textLength="79" x="865" y="92.5332">+bool isAlive</text><text fill="#000000" font-family="sans-serif" font-size="14" lengthAdjust="spacing" textLength="66" x="865" y="110.1426">+int health</text><text fill="#000000" font-family="sans-serif" font-size="14" lengthAdjust="spacing" textLength="117" x="865" y="127.752">-int _currentHealth</text><text fill="#000000" font-family="sans-serif" font-size="14" lengthAdjust="spacing" textLength="224" x="865" y="145.3613">-List&lt;EnemyAttack&gt; _attackPrefabs</text><line style="stroke:#181818;stroke-width:0.5;" x1="860" x2="1094" y1="152.4375" y2="152.4375"/><text fill="#000000" font-family="sans-serif" font-size="14" lengthAdjust="spacing" textLength="203" x="865" y="170.9707">+void TakeDamage(int damage)</text><text fill="#000000" font-family="sans-serif" font-size="14" lengthAdjust="spacing" textLength="69" x="865" y="188.5801">+void Die()</text><text fill="#000000" font-family="sans-serif" font-size="14" lengthAdjust="spacing" textLength="144" x="865" y="206.1895">-void GenerateAttack()</text></g><!--class EnemyAttack--><g id="elem_EnemyAttack"><rect codeLine="59" fill="#F1F1F1" height="153.6563" id="EnemyAttack" rx="2.5" ry="2.5" style="stroke:#181818;stroke-width:0.5;" width="241" x="856.5" y="273"/><ellipse cx="931.75" cy="289" fill="#ADD1B2" rx="11" ry="11" style="stroke:#181818;stroke-width:1.0;"/><path d="M935.2656,290.3594 Q935.0469,293.7344 933.9063,294.8594 Q932.9063,295.8594 931.5313,295.8594 Q930.1563,295.8594 929.1563,294.8594 Q927.4219,293.125 927.4219,289.4844 Q927.4219,285.2656 929.2813,283.3906 Q930.2969,282.3906 931.5938,282.3906 Q932.9688,282.3906 933.7813,283.1875 Q935.25,284.6719 935.1875,287.4375 L933.1875,287.4375 Q933.125,285.1563 932.4688,284.5 Q932.1563,284.1719 931.5938,284.1719 Q931.1094,284.1719 930.7188,284.5625 Q929.4688,285.8125 929.4688,289.3594 Q929.4688,292.4375 930.5313,293.4844 Q930.9844,293.9375 931.5313,293.9375 Q932.0156,293.9375 932.4688,293.4844 Q933.0625,292.9063 933.125,290.3594 L935.2656,290.3594 Z " fill="#000000"/><text fill="#000000" font-family="sans-serif" font-size="14" lengthAdjust="spacing" textLength="82" x="952.25" y="294.7285">EnemyAttack</text><line style="stroke:#181818;stroke-width:0.5;" x1="857.5" x2="1096.5" y1="305" y2="305"/><text fill="#000000" font-family="sans-serif" font-size="14" lengthAdjust="spacing" textLength="87" x="862.5" y="323.5332">+bool isActive</text><text fill="#000000" font-family="sans-serif" font-size="14" lengthAdjust="spacing" textLength="157" x="862.5" y="341.1426">-PlayerCharacter _target</text><text fill="#000000" font-family="sans-serif" font-size="14" lengthAdjust="spacing" textLength="111" x="862.5" y="358.752">-float moveSpeed</text><line style="stroke:#181818;stroke-width:0.5;" x1="857.5" x2="1096.5" y1="365.8281" y2="365.8281"/><text fill="#000000" font-family="sans-serif" font-size="14" lengthAdjust="spacing" textLength="79" x="862.5" y="384.3613">-void Move()</text><text fill="#000000" font-family="sans-serif" font-size="14" lengthAdjust="spacing" textLength="84" x="862.5" y="401.9707">-void Attack()</text><text fill="#000000" font-family="sans-serif" font-size="14" lengthAdjust="spacing" textLength="229" x="862.5" y="419.5801">-void OnTriggerEnter(Collider other)</text></g><!--class Knife--><g id="elem_Knife"><rect codeLine="71" fill="#F1F1F1" height="32" id="Knife" rx="2.5" ry="2.5" style="stroke:#181818;stroke-width:0.5;" width="64" x="852" y="487"/><ellipse cx="867" cy="503" fill="#ADD1B2" rx="11" ry="11" style="stroke:#181818;stroke-width:1.0;"/><path d="M870.5156,504.3594 Q870.2969,507.7344 869.1563,508.8594 Q868.1563,509.8594 866.7813,509.8594 Q865.4063,509.8594 864.4063,508.8594 Q862.6719,507.125 862.6719,503.4844 Q862.6719,499.2656 864.5313,497.3906 Q865.5469,496.3906 866.8438,496.3906 Q868.2188,496.3906 869.0313,497.1875 Q870.5,498.6719 870.4375,501.4375 L868.4375,501.4375 Q868.375,499.1563 867.7188,498.5 Q867.4063,498.1719 866.8438,498.1719 Q866.3594,498.1719 865.9688,498.5625 Q864.7188,499.8125 864.7188,503.3594 Q864.7188,506.4375 865.7813,507.4844 Q866.2344,507.9375 866.7813,507.9375 Q867.2656,507.9375 867.7188,507.4844 Q868.3125,506.9063 868.375,504.3594 L870.5156,504.3594 Z " fill="#000000"/><text fill="#000000" font-family="sans-serif" font-size="14" lengthAdjust="spacing" textLength="32" x="881" y="508.7285">Knife</text></g><!--class Pot--><g id="elem_Pot"><rect codeLine="72" fill="#F1F1F1" height="32" id="Pot" rx="2.5" ry="2.5" style="stroke:#181818;stroke-width:0.5;" width="53" x="951.5" y="487"/><ellipse cx="966.5" cy="503" fill="#ADD1B2" rx="11" ry="11" style="stroke:#181818;stroke-width:1.0;"/><path d="M970.0156,504.3594 Q969.7969,507.7344 968.6563,508.8594 Q967.6563,509.8594 966.2813,509.8594 Q964.9063,509.8594 963.9063,508.8594 Q962.1719,507.125 962.1719,503.4844 Q962.1719,499.2656 964.0313,497.3906 Q965.0469,496.3906 966.3438,496.3906 Q967.7188,496.3906 968.5313,497.1875 Q970,498.6719 969.9375,501.4375 L967.9375,501.4375 Q967.875,499.1563 967.2188,498.5 Q966.9063,498.1719 966.3438,498.1719 Q965.8594,498.1719 965.4688,498.5625 Q964.2188,499.8125 964.2188,503.3594 Q964.2188,506.4375 965.2813,507.4844 Q965.7344,507.9375 966.2813,507.9375 Q966.7656,507.9375 967.2188,507.4844 Q967.8125,506.9063 967.875,504.3594 L970.0156,504.3594 Z " fill="#000000"/><text fill="#000000" font-family="sans-serif" font-size="14" lengthAdjust="spacing" textLength="21" x="980.5" y="508.7285">Pot</text></g><!--class Rod--><g id="elem_Rod"><rect codeLine="73" fill="#F1F1F1" height="32" id="Rod" rx="2.5" ry="2.5" style="stroke:#181818;stroke-width:0.5;" width="58" x="1040" y="487"/><ellipse cx="1055" cy="503" fill="#ADD1B2" rx="11" ry="11" style="stroke:#181818;stroke-width:1.0;"/><path d="M1058.5156,504.3594 Q1058.2969,507.7344 1057.1563,508.8594 Q1056.1563,509.8594 1054.7813,509.8594 Q1053.4063,509.8594 1052.4063,508.8594 Q1050.6719,507.125 1050.6719,503.4844 Q1050.6719,499.2656 1052.5313,497.3906 Q1053.5469,496.3906 1054.8438,496.3906 Q1056.2188,496.3906 1057.0313,497.1875 Q1058.5,498.6719 1058.4375,501.4375 L1056.4375,501.4375 Q1056.375,499.1563 1055.7188,498.5 Q1055.4063,498.1719 1054.8438,498.1719 Q1054.3594,498.1719 1053.9688,498.5625 Q1052.7188,499.8125 1052.7188,503.3594 Q1052.7188,506.4375 1053.7813,507.4844 Q1054.2344,507.9375 1054.7813,507.9375 Q1055.2656,507.9375 1055.7188,507.4844 Q1056.3125,506.9063 1056.375,504.3594 L1058.5156,504.3594 Z " fill="#000000"/><text fill="#000000" font-family="sans-serif" font-size="14" lengthAdjust="spacing" textLength="26" x="1069" y="508.7285">Rod</text></g><!--class MainGameManager--><g id="elem_MainGameManager"><rect codeLine="81" fill="#F1F1F1" height="75.2188" id="MainGameManager" rx="2.5" ry="2.5" style="stroke:#181818;stroke-width:0.5;" width="236" x="1293" y="90"/><ellipse cx="1344.75" cy="106" fill="#ADD1B2" rx="11" ry="11" style="stroke:#181818;stroke-width:1.0;"/><path d="M1348.2656,107.3594 Q1348.0469,110.7344 1346.9063,111.8594 Q1345.9063,112.8594 1344.5313,112.8594 Q1343.1563,112.8594 1342.1563,111.8594 Q1340.4219,110.125 1340.4219,106.4844 Q1340.4219,102.2656 1342.2813,100.3906 Q1343.2969,99.3906 1344.5938,99.3906 Q1345.9688,99.3906 1346.7813,100.1875 Q1348.25,101.6719 1348.1875,104.4375 L1346.1875,104.4375 Q1346.125,102.1563 1345.4688,101.5 Q1345.1563,101.1719 1344.5938,101.1719 Q1344.1094,101.1719 1343.7188,101.5625 Q1342.4688,102.8125 1342.4688,106.3594 Q1342.4688,109.4375 1343.5313,110.4844 Q1343.9844,110.9375 1344.5313,110.9375 Q1345.0156,110.9375 1345.4688,110.4844 Q1346.0625,109.9063 1346.125,107.3594 L1348.2656,107.3594 Z " fill="#000000"/><text fill="#000000" font-family="sans-serif" font-size="14" lengthAdjust="spacing" textLength="124" x="1365.25" y="111.7285">MainGameManager</text><line style="stroke:#181818;stroke-width:0.5;" x1="1294" x2="1528" y1="122" y2="122"/><text fill="#000000" font-family="sans-serif" font-size="14" lengthAdjust="spacing" textLength="114" x="1299" y="140.5332">+GameState state</text><text fill="#000000" font-family="sans-serif" font-size="14" lengthAdjust="spacing" textLength="224" x="1299" y="158.1426">-GameTimeManager _timeManager</text></g><!--class GameState--><g id="elem_GameState"><rect codeLine="86" fill="#F1F1F1" height="145.6563" id="GameState" rx="2.5" ry="2.5" style="stroke:#181818;stroke-width:0.5;" width="103" x="1154.5" y="54.5"/><ellipse cx="1169.5" cy="70.5" fill="#EB937F" rx="11" ry="11" style="stroke:#181818;stroke-width:1.0;"/><path d="M1168.0625,69.3281 L1172.5781,69.3281 L1172.5781,71.125 L1168.0625,71.125 L1168.0625,75.5781 L1173.2969,75.5781 L1173.2969,77.3594 L1166,77.3594 L1166,63.8906 L1172.9688,63.8906 L1172.9688,65.6719 L1168.0625,65.6719 L1168.0625,69.3281 Z " fill="#000000"/><text fill="#000000" font-family="sans-serif" font-size="14" lengthAdjust="spacing" textLength="71" x="1183.5" y="76.2285">GameState</text><line style="stroke:#181818;stroke-width:0.5;" x1="1155.5" x2="1256.5" y1="86.5" y2="86.5"/><text fill="#000000" font-family="sans-serif" font-size="14" lengthAdjust="spacing" textLength="68" x="1160.5" y="105.0332">+Initializing</text><text fill="#000000" font-family="sans-serif" font-size="14" lengthAdjust="spacing" textLength="49" x="1160.5" y="122.6426">+Ready</text><text fill="#000000" font-family="sans-serif" font-size="14" lengthAdjust="spacing" textLength="34" x="1160.5" y="140.252">+Run</text><text fill="#000000" font-family="sans-serif" font-size="14" lengthAdjust="spacing" textLength="40" x="1160.5" y="157.8613">+Fight</text><text fill="#000000" font-family="sans-serif" font-size="14" lengthAdjust="spacing" textLength="48" x="1160.5" y="175.4707">+Result</text><text fill="#000000" font-family="sans-serif" font-size="14" lengthAdjust="spacing" textLength="62" x="1160.5" y="193.0801">+Finished</text></g><!--class GameTimeManager--><g id="elem_GameTimeManager"><rect codeLine="95" fill="#F1F1F1" height="32" id="GameTimeManager" rx="2.5" ry="2.5" style="stroke:#181818;stroke-width:0.5;" width="157" x="1332.5" y="334"/><ellipse cx="1347.5" cy="350" fill="#ADD1B2" rx="11" ry="11" style="stroke:#181818;stroke-width:1.0;"/><path d="M1351.0156,351.3594 Q1350.7969,354.7344 1349.6563,355.8594 Q1348.6563,356.8594 1347.2813,356.8594 Q1345.9063,356.8594 1344.9063,355.8594 Q1343.1719,354.125 1343.1719,350.4844 Q1343.1719,346.2656 1345.0313,344.3906 Q1346.0469,343.3906 1347.3438,343.3906 Q1348.7188,343.3906 1349.5313,344.1875 Q1351,345.6719 1350.9375,348.4375 L1348.9375,348.4375 Q1348.875,346.1563 1348.2188,345.5 Q1347.9063,345.1719 1347.3438,345.1719 Q1346.8594,345.1719 1346.4688,345.5625 Q1345.2188,346.8125 1345.2188,350.3594 Q1345.2188,353.4375 1346.2813,354.4844 Q1346.7344,354.9375 1347.2813,354.9375 Q1347.7656,354.9375 1348.2188,354.4844 Q1348.8125,353.9063 1348.875,351.3594 L1351.0156,351.3594 Z " fill="#000000"/><text fill="#000000" font-family="sans-serif" font-size="14" lengthAdjust="spacing" textLength="125" x="1361.5" y="355.7285">GameTimeManager</text></g><!--link PlayerCore to PlayerInputs--><g id="link_PlayerCore_PlayerInputs"><path codeLine="31" d="M504.42,204.69 C529.7,226.73 552.7666,246.8281 578.0466,268.8581 " fill="none" id="PlayerCore-to-PlayerInputs" style="stroke:#181818;stroke-width:1.0;"/><polygon fill="#181818" points="582.57,272.8,578.4128,263.8715,578.8005,269.5151,573.1569,269.9028,582.57,272.8" style="stroke:#181818;stroke-width:1.0;"/></g><!--reverse link PlayerCharacter to CharacterParameters--><g id="link_PlayerCharacter_CharacterParameters"><path codeLine="43" d="M317.71,350 C329.36,350 329.01,350 340.66,350 " fill="none" id="PlayerCharacter-backto-CharacterParameters" style="stroke:#181818;stroke-width:1.0;"/><polygon fill="#181818" points="305.71,350,311.71,354,317.71,350,311.71,346,305.71,350" style="stroke:#181818;stroke-width:1.0;"/></g><!--reverse link PlayerCore to PlayerCharacter--><g id="link_PlayerCore_PlayerCharacter"><path codeLine="44" d="M320.5349,212.5758 C295.2549,234.6158 276.71,250.77 251.43,272.8 " fill="none" id="PlayerCore-backto-PlayerCharacter" style="stroke:#181818;stroke-width:1.0;"/><polygon fill="#181818" points="329.58,204.69,322.4288,205.6179,320.5349,212.5758,327.6861,211.6479,329.58,204.69" style="stroke:#181818;stroke-width:1.0;"/></g><!--reverse link EnemyCore to EnemyAttack--><g id="link_EnemyCore_EnemyAttack"><path codeLine="69" d="M977,225.12 C977,244.8 977,253.62 977,272.9 " fill="none" id="EnemyCore-backto-EnemyAttack" style="stroke:#181818;stroke-width:1.0;"/><polygon fill="#181818" points="977,213.12,973,219.12,977,225.12,981,219.12,977,213.12" style="stroke:#181818;stroke-width:1.0;"/></g><!--reverse link EnemyAttack to Knife--><g id="link_EnemyAttack_Knife"><path codeLine="75" d="M920.5198,442.7059 C906.5498,465.3859 902.09,472.63 893.29,486.91 " fill="none" id="EnemyAttack-backto-Knife" style="stroke:#181818;stroke-width:1.0;"/><polygon fill="none" points="929.96,427.38,915.4112,439.5592,925.6285,445.8526,929.96,427.38" style="stroke:#181818;stroke-width:1.0;"/></g><!--reverse link EnemyAttack to Pot--><g id="link_EnemyAttack_Pot"><path codeLine="76" d="M977.629,445.3796 C977.779,468.0596 977.81,472.63 977.9,486.91 " fill="none" id="EnemyAttack-backto-Pot" style="stroke:#181818;stroke-width:1.0;"/><polygon fill="none" points="977.51,427.38,971.6292,445.4193,983.6289,445.3399,977.51,427.38" style="stroke:#181818;stroke-width:1.0;"/></g><!--reverse link EnemyAttack to Rod--><g id="link_EnemyAttack_Rod"><path codeLine="77" d="M1032.9064,442.7511 C1046.7264,465.4311 1051.11,472.63 1059.81,486.91 " fill="none" id="EnemyAttack-backto-Rod" style="stroke:#181818;stroke-width:1.0;"/><polygon fill="none" points="1023.54,427.38,1027.7826,445.8732,1038.0301,439.629,1023.54,427.38" style="stroke:#181818;stroke-width:1.0;"/></g><!--link MainGameManager to GameTimeManager--><g id="link_MainGameManager_GameTimeManager"><path codeLine="97" d="M1411,165.41 C1411,214.57 1411,293.34 1411,327.79 " fill="none" id="MainGameManager-to-GameTimeManager" style="stroke:#181818;stroke-width:1.0;"/><polygon fill="#181818" points="1411,333.79,1415,324.79,1411,328.79,1407,324.79,1411,333.79" style="stroke:#181818;stroke-width:1.0;"/></g><!--SRC=[dLLDR-8m4BtdL_W8NI7jzbnLgcYtYrfK1AXNP98X6U7Oo7QGQCj_Nzi1Cd6oMjGSal7C-8tVV3XcYtB7DIzPAhWn3zPgN5SM9gcI2_m0zZCfC0C6vSuUM0db6hH94ibBC3kU0fi9Vd0gzfamzmGGDYuSOcf1ppmoEC7KPl_yO1kXk6MbsiDY1v0H2qhB2k325a5vJ0Xe7MWYTvLjeRr3QfM-PQ-miLE7sMEQOrx4jhLIWZcwFDqcHBrNcB4tUGORX7ZlN5J0zluzxFfUqAznhYF-mzFnxH0UAmtiCpuucWU1XC-ebHwsml3jc2-5OQlqBFwwokis8Mw1Is0yZBKdVaDQFq9aDBfldRI7xoNu5QHx6esjCjZmIjX6zRyDQQKrIBeXhjkIR-6Hbpo7WM_HB8YTweQCd7ikG-qaLBBZzeZGcvyByPlUSyQfl1brwfKSwMG-IIWFhRaCckiQgZEBTVwyyfolFx7n5Osz2p7gBhXdAnw4cNObMNythKs-I9yzWmJDBVJr6o5RctlfkkBq313fVSjr3fPunFVMDoQ2wD_aKcEUWtwIBjnWh8Hm5wrcoXQWMtoQilcQ4rwKxel43T1fKlNHns4rLnd1EcNbxil1DViwfZD4n-3HMgtsxAGfbwvwqPzWob4IOwiGNh-mheRC-3V9ZxSiiTcriis29WPaLJOm57iYqI8N-84o9-evyEn0rvKagz_-8czv6tUFj1mackBqnserMtJYsXIJzvTVx7XC_W80]--></g></svg>